<svg xmlns="http://www.w3.org/2000/svg" viewBox="0 0 800 600" width="800" height="600" role="img" aria-label="Illustration of oilseeds and agricultural seeds">
  <title>Illustration of oilseeds and agricultural seeds</title>
  <defs>
    <linearGradient id="bg" x1="0" y1="0" x2="0.6" y2="1">
      <stop offset="0" stop-color="#F0F1E9"/><stop offset="1" stop-color="#E4E7D9"/>
    </linearGradient>
    <pattern id="grid" width="40" height="40" patternUnits="userSpaceOnUse">
      <path d="M40 0H0V40" fill="none" stroke="#3F4A2E" stroke-opacity="0.07" stroke-width="1"/>
    </pattern>
  </defs>
  <rect width="800" height="600" fill="url(#bg)"/>
  <rect width="800" height="600" fill="url(#grid)"/>
  <rect x="0" y="594" width="800" height="6" fill="#D4922B" opacity="0.75"/>
  <path d="M120 470 q280-120 560 0 v60 h-560 z" fill="#B99A5E"/><ellipse cx="381" cy="363" rx="13" ry="8" fill="#6B5A2E" transform="rotate(25 381 363)"/><ellipse cx="316" cy="379" rx="13" ry="8" fill="#3F4A2E" transform="rotate(109 316 379)"/><ellipse cx="428" cy="405" rx="13" ry="8" fill="#A98C4A" transform="rotate(7 428 405)"/><ellipse cx="228" cy="461" rx="13" ry="8" fill="#A98C4A" transform="rotate(171 228 461)"/><ellipse cx="222" cy="340" rx="13" ry="8" fill="#6B5A2E" transform="rotate(20 222 340)"/><ellipse cx="543" cy="365" rx="13" ry="8" fill="#6B5A2E" transform="rotate(134 543 365)"/><ellipse cx="618" cy="335" rx="13" ry="8" fill="#A98C4A" transform="rotate(40 618 335)"/><ellipse cx="603" cy="431" rx="13" ry="8" fill="#A98C4A" transform="rotate(164 603 431)"/><ellipse cx="286" cy="438" rx="13" ry="8" fill="#6B5A2E" transform="rotate(36 286 438)"/><ellipse cx="597" cy="309" rx="13" ry="8" fill="#A98C4A" transform="rotate(68 597 309)"/><ellipse cx="212" cy="340" rx="13" ry="8" fill="#6B5A2E" transform="rotate(133 212 340)"/><ellipse cx="641" cy="301" rx="13" ry="8" fill="#8A7438" transform="rotate(138 641 301)"/><ellipse cx="606" cy="335" rx="13" ry="8" fill="#6B5A2E" transform="rotate(1 606 335)"/><ellipse cx="209" cy="456" rx="13" ry="8" fill="#A98C4A" transform="rotate(90 209 456)"/><ellipse cx="420" cy="334" rx="13" ry="8" fill="#8A7438" transform="rotate(12 420 334)"/><ellipse cx="472" cy="316" rx="13" ry="8" fill="#8A7438" transform="rotate(104 472 316)"/><ellipse cx="629" cy="422" rx="13" ry="8" fill="#3F4A2E" transform="rotate(7 629 422)"/><ellipse cx="429" cy="403" rx="13" ry="8" fill="#3F4A2E" transform="rotate(27 429 403)"/><ellipse cx="523" cy="398" rx="13" ry="8" fill="#A98C4A" transform="rotate(6 523 398)"/><ellipse cx="634" cy="340" rx="13" ry="8" fill="#6B5A2E" transform="rotate(110 634 340)"/><ellipse cx="523" cy="444" rx="13" ry="8" fill="#6B5A2E" transform="rotate(94 523 444)"/><ellipse cx="591" cy="319" rx="13" ry="8" fill="#3F4A2E" transform="rotate(159 591 319)"/><ellipse cx="375" cy="368" rx="13" ry="8" fill="#6B5A2E" transform="rotate(177 375 368)"/><ellipse cx="337" cy="403" rx="13" ry="8" fill="#6B5A2E" transform="rotate(0 337 403)"/><ellipse cx="251" cy="375" rx="13" ry="8" fill="#6B5A2E" transform="rotate(58 251 375)"/><ellipse cx="300" cy="348" rx="13" ry="8" fill="#6B5A2E" transform="rotate(93 300 348)"/><ellipse cx="153" cy="433" rx="13" ry="8" fill="#A98C4A" transform="rotate(145 153 433)"/><ellipse cx="320" cy="432" rx="13" ry="8" fill="#6B5A2E" transform="rotate(102 320 432)"/><ellipse cx="361" cy="339" rx="13" ry="8" fill="#A98C4A" transform="rotate(174 361 339)"/><ellipse cx="405" cy="462" rx="13" ry="8" fill="#8A7438" transform="rotate(101 405 462)"/><ellipse cx="487" cy="329" rx="13" ry="8" fill="#3F4A2E" transform="rotate(152 487 329)"/><ellipse cx="155" cy="460" rx="13" ry="8" fill="#3F4A2E" transform="rotate(146 155 460)"/><ellipse cx="632" cy="468" rx="13" ry="8" fill="#6B5A2E" transform="rotate(109 632 468)"/><ellipse cx="165" cy="377" rx="13" ry="8" fill="#3F4A2E" transform="rotate(142 165 377)"/><ellipse cx="458" cy="464" rx="13" ry="8" fill="#8A7438" transform="rotate(64 458 464)"/><ellipse cx="390" cy="347" rx="13" ry="8" fill="#3F4A2E" transform="rotate(173 390 347)"/><ellipse cx="502" cy="311" rx="13" ry="8" fill="#A98C4A" transform="rotate(81 502 311)"/><ellipse cx="446" cy="436" rx="13" ry="8" fill="#3F4A2E" transform="rotate(119 446 436)"/><ellipse cx="541" cy="450" rx="13" ry="8" fill="#6B5A2E" transform="rotate(89 541 450)"/><ellipse cx="620" cy="347" rx="13" ry="8" fill="#6B5A2E" transform="rotate(23 620 347)"/><ellipse cx="224" cy="434" rx="13" ry="8" fill="#8A7438" transform="rotate(155 224 434)"/><ellipse cx="231" cy="378" rx="13" ry="8" fill="#A98C4A" transform="rotate(101 231 378)"/><ellipse cx="183" cy="393" rx="13" ry="8" fill="#3F4A2E" transform="rotate(107 183 393)"/><ellipse cx="418" cy="460" rx="13" ry="8" fill="#A98C4A" transform="rotate(5 418 460)"/><ellipse cx="423" cy="389" rx="13" ry="8" fill="#6B5A2E" transform="rotate(97 423 389)"/><ellipse cx="596" cy="398" rx="13" ry="8" fill="#6B5A2E" transform="rotate(172 596 398)"/><ellipse cx="517" cy="423" rx="13" ry="8" fill="#A98C4A" transform="rotate(19 517 423)"/><ellipse cx="376" cy="383" rx="13" ry="8" fill="#6B5A2E" transform="rotate(115 376 383)"/><ellipse cx="493" cy="305" rx="13" ry="8" fill="#A98C4A" transform="rotate(44 493 305)"/><ellipse cx="260" cy="440" rx="13" ry="8" fill="#A98C4A" transform="rotate(131 260 440)"/><ellipse cx="595" cy="306" rx="13" ry="8" fill="#6B5A2E" transform="rotate(107 595 306)"/><ellipse cx="493" cy="369" rx="13" ry="8" fill="#8A7438" transform="rotate(12 493 369)"/><ellipse cx="158" cy="428" rx="13" ry="8" fill="#6B5A2E" transform="rotate(15 158 428)"/><ellipse cx="324" cy="380" rx="13" ry="8" fill="#6B5A2E" transform="rotate(96 324 380)"/><ellipse cx="506" cy="313" rx="13" ry="8" fill="#3F4A2E" transform="rotate(15 506 313)"/><ellipse cx="144" cy="462" rx="13" ry="8" fill="#A98C4A" transform="rotate(106 144 462)"/><ellipse cx="653" cy="442" rx="13" ry="8" fill="#3F4A2E" transform="rotate(19 653 442)"/><ellipse cx="489" cy="377" rx="13" ry="8" fill="#8A7438" transform="rotate(23 489 377)"/><ellipse cx="197" cy="309" rx="13" ry="8" fill="#6B5A2E" transform="rotate(13 197 309)"/><ellipse cx="334" cy="426" rx="13" ry="8" fill="#8A7438" transform="rotate(84 334 426)"/><ellipse cx="332" cy="408" rx="13" ry="8" fill="#3F4A2E" transform="rotate(43 332 408)"/><ellipse cx="537" cy="416" rx="13" ry="8" fill="#3F4A2E" transform="rotate(3 537 416)"/><ellipse cx="631" cy="304" rx="13" ry="8" fill="#A98C4A" transform="rotate(19 631 304)"/><ellipse cx="170" cy="343" rx="13" ry="8" fill="#8A7438" transform="rotate(153 170 343)"/><ellipse cx="472" cy="416" rx="13" ry="8" fill="#6B5A2E" transform="rotate(24 472 416)"/><ellipse cx="556" cy="466" rx="13" ry="8" fill="#A98C4A" transform="rotate(142 556 466)"/><ellipse cx="624" cy="449" rx="13" ry="8" fill="#6B5A2E" transform="rotate(166 624 449)"/><ellipse cx="155" cy="375" rx="13" ry="8" fill="#3F4A2E" transform="rotate(75 155 375)"/><ellipse cx="396" cy="359" rx="13" ry="8" fill="#A98C4A" transform="rotate(151 396 359)"/><ellipse cx="364" cy="313" rx="13" ry="8" fill="#A98C4A" transform="rotate(54 364 313)"/><path d="M400 120 q70 60 0 150 q-70-90 0-150 z" fill="#9BA85F"/><path d="M400 140 v128" stroke="#6E7B3F" stroke-width="6"/>
</svg>
