<svg xmlns="http://www.w3.org/2000/svg" viewBox="0 0 800 600" width="800" height="600" role="img" aria-label="Illustration of rice grains and bulk grain sacks">
  <title>Illustration of rice grains and bulk grain sacks</title>
  <defs>
    <linearGradient id="bg" x1="0" y1="0" x2="0.6" y2="1">
      <stop offset="0" stop-color="#F0F1E9"/><stop offset="1" stop-color="#E4E7D9"/>
    </linearGradient>
    <pattern id="grid" width="40" height="40" patternUnits="userSpaceOnUse">
      <path d="M40 0H0V40" fill="none" stroke="#3F4A2E" stroke-opacity="0.07" stroke-width="1"/>
    </pattern>
  </defs>
  <rect width="800" height="600" fill="url(#bg)"/>
  <rect width="800" height="600" fill="url(#grid)"/>
  <rect x="0" y="594" width="800" height="6" fill="#D4922B" opacity="0.75"/>
  <path d="M130 500 v-220 q0-30 100-30 q100 0 100 30 v220 z" fill="#D9CFAE"/><rect x="130" y="380" width="200" height="40" fill="#B9AC84" opacity="0.75"/><path d="M350 500 v-180 q0-30 85-30 q85 0 85 30 v180 z" fill="#C9BE99"/><rect x="350" y="399" width="170" height="34" fill="#A89B70" opacity="0.75"/><ellipse cx="575" cy="433" rx="16" ry="6" fill="#EDE3C6" stroke="#C8BA93" stroke-width="1.5" transform="rotate(-10 575 433)"/><ellipse cx="659" cy="449" rx="16" ry="6" fill="#EDE3C6" stroke="#C8BA93" stroke-width="1.5" transform="rotate(-35 659 449)"/><ellipse cx="523" cy="489" rx="16" ry="6" fill="#EDE3C6" stroke="#C8BA93" stroke-width="1.5" transform="rotate(-19 523 489)"/><ellipse cx="574" cy="519" rx="16" ry="6" fill="#EDE3C6" stroke="#C8BA93" stroke-width="1.5" transform="rotate(-2 574 519)"/><ellipse cx="712" cy="421" rx="16" ry="6" fill="#EDE3C6" stroke="#C8BA93" stroke-width="1.5" transform="rotate(11 712 421)"/><ellipse cx="555" cy="451" rx="16" ry="6" fill="#EDE3C6" stroke="#C8BA93" stroke-width="1.5" transform="rotate(29 555 451)"/><ellipse cx="640" cy="471" rx="16" ry="6" fill="#EDE3C6" stroke="#C8BA93" stroke-width="1.5" transform="rotate(14 640 471)"/><ellipse cx="535" cy="474" rx="16" ry="6" fill="#EDE3C6" stroke="#C8BA93" stroke-width="1.5" transform="rotate(7 535 474)"/><ellipse cx="589" cy="336" rx="16" ry="6" fill="#EDE3C6" stroke="#C8BA93" stroke-width="1.5" transform="rotate(29 589 336)"/><ellipse cx="629" cy="467" rx="16" ry="6" fill="#EDE3C6" stroke="#C8BA93" stroke-width="1.5" transform="rotate(30 629 467)"/><ellipse cx="684" cy="505" rx="16" ry="6" fill="#EDE3C6" stroke="#C8BA93" stroke-width="1.5" transform="rotate(-8 684 505)"/><ellipse cx="704" cy="414" rx="16" ry="6" fill="#EDE3C6" stroke="#C8BA93" stroke-width="1.5" transform="rotate(35 704 414)"/><ellipse cx="722" cy="349" rx="16" ry="6" fill="#EDE3C6" stroke="#C8BA93" stroke-width="1.5" transform="rotate(-29 722 349)"/><ellipse cx="570" cy="513" rx="16" ry="6" fill="#EDE3C6" stroke="#C8BA93" stroke-width="1.5" transform="rotate(-5 570 513)"/><ellipse cx="664" cy="387" rx="16" ry="6" fill="#EDE3C6" stroke="#C8BA93" stroke-width="1.5" transform="rotate(1 664 387)"/><ellipse cx="609" cy="397" rx="16" ry="6" fill="#EDE3C6" stroke="#C8BA93" stroke-width="1.5" transform="rotate(7 609 397)"/><ellipse cx="654" cy="502" rx="16" ry="6" fill="#EDE3C6" stroke="#C8BA93" stroke-width="1.5" transform="rotate(15 654 502)"/><ellipse cx="734" cy="493" rx="16" ry="6" fill="#EDE3C6" stroke="#C8BA93" stroke-width="1.5" transform="rotate(39 734 493)"/><ellipse cx="674" cy="361" rx="16" ry="6" fill="#EDE3C6" stroke="#C8BA93" stroke-width="1.5" transform="rotate(29 674 361)"/><ellipse cx="742" cy="502" rx="16" ry="6" fill="#EDE3C6" stroke="#C8BA93" stroke-width="1.5" transform="rotate(6 742 502)"/><ellipse cx="684" cy="370" rx="16" ry="6" fill="#EDE3C6" stroke="#C8BA93" stroke-width="1.5" transform="rotate(27 684 370)"/><ellipse cx="652" cy="384" rx="16" ry="6" fill="#EDE3C6" stroke="#C8BA93" stroke-width="1.5" transform="rotate(-35 652 384)"/><ellipse cx="716" cy="518" rx="16" ry="6" fill="#EDE3C6" stroke="#C8BA93" stroke-width="1.5" transform="rotate(-33 716 518)"/><ellipse cx="704" cy="408" rx="16" ry="6" fill="#EDE3C6" stroke="#C8BA93" stroke-width="1.5" transform="rotate(-28 704 408)"/><ellipse cx="588" cy="476" rx="16" ry="6" fill="#EDE3C6" stroke="#C8BA93" stroke-width="1.5" transform="rotate(30 588 476)"/><ellipse cx="530" cy="447" rx="16" ry="6" fill="#EDE3C6" stroke="#C8BA93" stroke-width="1.5" transform="rotate(-36 530 447)"/><ellipse cx="685" cy="393" rx="16" ry="6" fill="#EDE3C6" stroke="#C8BA93" stroke-width="1.5" transform="rotate(30 685 393)"/><ellipse cx="746" cy="426" rx="16" ry="6" fill="#EDE3C6" stroke="#C8BA93" stroke-width="1.5" transform="rotate(40 746 426)"/><ellipse cx="591" cy="345" rx="16" ry="6" fill="#EDE3C6" stroke="#C8BA93" stroke-width="1.5" transform="rotate(8 591 345)"/><ellipse cx="527" cy="368" rx="16" ry="6" fill="#EDE3C6" stroke="#C8BA93" stroke-width="1.5" transform="rotate(-7 527 368)"/><ellipse cx="660" cy="360" rx="16" ry="6" fill="#EDE3C6" stroke="#C8BA93" stroke-width="1.5" transform="rotate(-37 660 360)"/><ellipse cx="720" cy="390" rx="16" ry="6" fill="#EDE3C6" stroke="#C8BA93" stroke-width="1.5" transform="rotate(37 720 390)"/><ellipse cx="726" cy="402" rx="16" ry="6" fill="#EDE3C6" stroke="#C8BA93" stroke-width="1.5" transform="rotate(-3 726 402)"/><ellipse cx="640" cy="452" rx="16" ry="6" fill="#EDE3C6" stroke="#C8BA93" stroke-width="1.5" transform="rotate(8 640 452)"/><ellipse cx="649" cy="448" rx="16" ry="6" fill="#EDE3C6" stroke="#C8BA93" stroke-width="1.5" transform="rotate(35 649 448)"/><ellipse cx="637" cy="412" rx="16" ry="6" fill="#EDE3C6" stroke="#C8BA93" stroke-width="1.5" transform="rotate(18 637 412)"/><ellipse cx="575" cy="387" rx="16" ry="6" fill="#EDE3C6" stroke="#C8BA93" stroke-width="1.5" transform="rotate(38 575 387)"/><ellipse cx="640" cy="434" rx="16" ry="6" fill="#EDE3C6" stroke="#C8BA93" stroke-width="1.5" transform="rotate(-39 640 434)"/><ellipse cx="615" cy="440" rx="16" ry="6" fill="#EDE3C6" stroke="#C8BA93" stroke-width="1.5" transform="rotate(-38 615 440)"/><ellipse cx="662" cy="450" rx="16" ry="6" fill="#EDE3C6" stroke="#C8BA93" stroke-width="1.5" transform="rotate(-35 662 450)"/><ellipse cx="664" cy="419" rx="16" ry="6" fill="#EDE3C6" stroke="#C8BA93" stroke-width="1.5" transform="rotate(14 664 419)"/><ellipse cx="601" cy="464" rx="16" ry="6" fill="#EDE3C6" stroke="#C8BA93" stroke-width="1.5" transform="rotate(19 601 464)"/><ellipse cx="525" cy="342" rx="16" ry="6" fill="#EDE3C6" stroke="#C8BA93" stroke-width="1.5" transform="rotate(14 525 342)"/><ellipse cx="742" cy="378" rx="16" ry="6" fill="#EDE3C6" stroke="#C8BA93" stroke-width="1.5" transform="rotate(-3 742 378)"/><ellipse cx="656" cy="391" rx="16" ry="6" fill="#EDE3C6" stroke="#C8BA93" stroke-width="1.5" transform="rotate(-11 656 391)"/><ellipse cx="592" cy="400" rx="16" ry="6" fill="#EDE3C6" stroke="#C8BA93" stroke-width="1.5" transform="rotate(8 592 400)"/><path d="M520 300 q60-40 130-16 q-50 44-130 16 z" fill="#9BA85F" opacity="0.8"/><rect x="150" y="290" width="150" height="46" rx="6" fill="#EEF2F7" opacity="0.55"/>
</svg>
