<svg xmlns="http://www.w3.org/2000/svg" viewBox="0 0 800 600" width="800" height="600" role="img" aria-label="Illustration of industrial cartons on a pallet">
  <title>Illustration of industrial cartons on a pallet</title>
  <defs>
    <linearGradient id="bg" x1="0" y1="0" x2="0.6" y2="1">
      <stop offset="0" stop-color="#EEF2F7"/><stop offset="1" stop-color="#E3EAF2"/>
    </linearGradient>
    <pattern id="grid" width="40" height="40" patternUnits="userSpaceOnUse">
      <path d="M40 0H0V40" fill="none" stroke="#17324F" stroke-opacity="0.07" stroke-width="1"/>
    </pattern>
  </defs>
  <rect width="800" height="600" fill="url(#bg)"/>
  <rect width="800" height="600" fill="url(#grid)"/>
  <rect x="0" y="594" width="800" height="6" fill="#D4922B" opacity="0.75"/>
  <rect x="140" y="300" width="200" height="160" rx="6" fill="#C99A62"/><rect x="140" y="358" width="200" height="14" fill="#EEF2F7" opacity="0.65"/><rect x="235" y="300" width="10" height="160" fill="#17324F" opacity="0.12"/><rect x="352" y="250" width="180" height="210" rx="6" fill="#B4844D"/><rect x="352" y="326" width="180" height="14" fill="#EEF2F7" opacity="0.65"/><rect x="437" y="250" width="10" height="210" fill="#17324F" opacity="0.12"/><rect x="544" y="320" width="150" height="140" rx="6" fill="#C99A62"/><rect x="544" y="370" width="150" height="14" fill="#EEF2F7" opacity="0.65"/><rect x="614" y="320" width="10" height="140" fill="#17324F" opacity="0.12"/><rect x="110" y="470" width="600" height="18" fill="#52657D"/><rect x="110" y="500" width="600" height="18" fill="#52657D"/><rect x="130" y="470" width="40" height="48" fill="#17324F" opacity="0.5"/><rect x="380" y="470" width="40" height="48" fill="#17324F" opacity="0.5"/><rect x="640" y="470" width="40" height="48" fill="#17324F" opacity="0.5"/><rect x="372" y="276" width="70" height="52" rx="4" fill="#D4922B" opacity="0.9"/>
</svg>
